:SAMPLES-PER-SECOND 30
:FULLY-SPECIFIED
:DEGREES
123
root  -46.8257 40.1627 -3.07589 1.98946 -81.2502 -10.2103
RightUpLeg  -4.46296 -15.5244 -0.494058
RightLeg  22.7236 -1.12666 1.24448
RightFoot  -8.07171 0.0676388 -4.27671
RightToes  -4.65663e-010 0 -3.6325e-017
Spine  10.9103 0.673572 10.1211
Spine1  11.0939 3.03029 -2.831
HEad  15.7598 19.2742 -12.9591
LeftShoulder1  7.26278 -10.9032 -43.8686
LeftArm  -8.12448 14.0821 -31.272
LeftForeArm  40.9186 -16.9021 -3.64271
LeftHand  -0.244104 0.0205437 5.32207
RightShoulder  4.43023 7.64077 33.8038
RightArm  2.46669 -7.58 39.0464
RightForeArm  0.649894 32.1141 7.03497
RightHand  -1.48897 3.30001 -19.9658
LeftUpLeg  -19.7359 -2.30123 0.326331
LeftLeg  51.8564 4.51887 6.58116
LeftFoot  -0.445242 0.081602 -0.853423
LeftToes  -5.82109e-011 -4.83791e-012 -1.00937e-011
124
root  -48.0778 40.4034 -3.1259 -0.181335 -79.8047 -7.29292
RightUpLeg  -1.52358 -12.7445 -1.11648
RightLeg  19.9178 -4.94907 1.53581
RightFoot  -9.06799 0.0146618 -3.79068
RightToes  -4.65663e-010 0 -3.6325e-017
Spine  10.1456 1.03273 10.1118
Spine1  10.4494 3.37279 -3.86066
HEad  15.2481 19.5511 -12.9989
LeftShoulder1  7.19681 -10.8498 -43.6193
LeftArm  -11.4836 18.077 -29.5459
LeftForeArm  38.8205 -12.2563 -4.24974
LeftHand  -0.244104 0.0205437 5.32207
RightShoulder  4.61821 8.03517 34.0748
RightArm  4.60338 -5.89641 37.9928
RightForeArm  6.78013 40.619 9.19203
RightHand  -1.42395 3.0702 -19.6074
LeftUpLeg  -20.4432 -0.541543 -0.737827
LeftLeg  40.4205 6.16899 5.97552
LeftFoot  -0.544515 0.169422 -1.73536
LeftToes  -5.82109e-011 -4.83791e-012 -1.00937e-011
125
root  -49.3496 40.5042 -3.14744 0.525467 -78.4253 -7.47623
RightUpLeg  1.2973 -10.7386 -0.90677
RightLeg  17.6765 -8.23099 1.73095
RightFoot  -10.4056 -0.0453539 -3.11438
RightToes  -4.65663e-010 0 -3.6325e-017
Spine  9.04196 1.50902 10.4553
Spine1  10.6961 3.79619 -4.48185
HEad  14.8203 19.2883 -12.7645
LeftShoulder1  6.99091 -10.4323 -43.6386
LeftArm  -12.401 21.6979 -27.7487
LeftForeArm  35.4913 -9.91908 -4.11862
LeftHand  -0.244104 0.0205437 5.32207
RightShoulder  4.6198 8.10558 33.8461
RightArm  5.78232 -3.76471 37.0199
RightForeArm  10.5942 48.1481 11.7641
RightHand  -1.30682 2.58857 -19.0746
LeftUpLeg  -19.9185 4.72035 -2.30778
LeftLeg  27.7114 6.19225 4.10595
LeftFoot  1.00977 0.272693 -2.58872
LeftToes  -5.82109e-011 -4.83791e-012 -1.00937e-011
126
root  -50.639 40.5042 -3.13095 2.10651 -77.0482 -8.89058
RightUpLeg  4.27508 -9.73291 -0.342795
RightLeg  15.8387 -10.61 2.03035
RightFoot  -11.6497 -0.0866518 -2.73727
RightToes  -4.65663e-010 0 -3.6325e-017
Spine  7.73646 2.01698 11.1449
Spine1  11.7197 4.40151 -5.1349
HEad  14.7136 18.8249 -12.4231
LeftShoulder1  6.7757 -10.0461 -43.4888
LeftArm  -12.4787 25.2335 -26.0724
LeftForeArm  33.0465 -9.57324 -3.88034
LeftHand  -0.244104 0.0205437 5.32207
RightShoulder  4.52881 8.02477 33.3399
RightArm  6.10032 -1.30307 36.3221
RightForeArm  11.8631 53.319 14.189
RightHand  -1.17531 2.10791 -18.2762
LeftUpLeg  -18.3735 12.0168 -4.24029
LeftLeg  15.2912 5.70251 1.13245
LeftFoot  2.28591 0.247987 -2.19333
LeftToes  -5.82109e-011 -4.83791e-012 -1.00937e-011
127
root  -51.9524 40.363 -3.07698 3.18124 -75.3127 -10.3226
RightUpLeg  7.36525 -9.61867 0.253741
RightLeg  15.0386 -12.1982 2.2215
RightFoot  -13.517 -0.130214 -2.13579
RightToes  -4.65663e-010 0 -3.6325e-017
Spine  6.77296 2.32855 11.8706
Spine1  12.7104 4.93125 -5.67434
HEad  15.4012 18.6323 -12.0727
LeftShoulder1  6.55697 -9.7924 -42.85
LeftArm  -12.5518 28.7512 -24.7792
LeftForeArm  31.7271 -10.3707 -3.62089
LeftHand  -0.244104 0.0205437 5.32207
RightShoulder  4.46885 7.98211 32.9652
RightArm  6.0679 1.31567 35.731
RightForeArm  11.3443 55.5036 15.5464
RightHand  -1.19503 2.27229 -18.1794
LeftUpLeg  -15.4318 10.671 -2.92332
LeftLeg  4.27535 15.724 -4.45089
LeftFoot  2.79821 0.161137 -1.4378
LeftToes  -5.82109e-011 -4.83791e-012 -1.00937e-011
128
root  -53.308 40.075 -2.99408 3.89136 -72.9459 -11.6682
RightUpLeg  10.328 -10.507 0.880035
RightLeg  15.3816 -13.2641 2.17622
RightFoot  -16.1246 -0.143736 -0.852304
RightToes  -4.65663e-010 0 -3.6325e-017
Spine  5.96754 2.5533 12.298
Spine1  13.1702 5.14036 -5.64246
HEad  17.014 18.5751 -11.3
LeftShoulder1  6.254 -9.45985 -41.8514
LeftArm  -12.8652 31.6527 -23.9663
LeftForeArm  30.9295 -11.3173 -3.30603
LeftHand  -0.244104 0.0205437 5.32207
RightShoulder  4.42126 7.88595 32.8759
RightArm  5.80362 3.69801 35.128
RightForeArm  10.4585 55.2497 15.4847
RightHand  -1.28427 2.53142 -18.8959
LeftUpLeg  -12.3596 3.10467 -0.424201
LeftLeg  -5.07267 33.6677 -11.3363
LeftFoot  2.78087 0.0891431 -0.857799
LeftToes  -5.82109e-011 -4.83791e-012 -1.00937e-011
129
root  -54.736 39.7126 -2.89193 4.4966 -70.1445 -12.5057
RightUpLeg  12.6306 -12.5813 1.43722
RightLeg  16.5301 -13.8001 1.84417
RightFoot  -18.4515 -0.105211 0.346665
RightToes  -4.65663e-010 0 -3.6325e-017
Spine  4.69664 2.95067 12.3561
Spine1  13.3119 5.30111 -5.22868
HEad  18.6388 18.0034 -10.2119
LeftShoulder1  5.86605 -8.96308 -40.734
LeftArm  -13.596 33.5981 -23.4594
LeftForeArm  29.9434 -12.135 -2.94591
LeftHand  -0.244104 0.0205437 5.32207
RightShoulder  4.35215 7.6755 32.9883
RightArm  4.9525 5.05724 34.6233
RightForeArm  9.60261 53.6802 14.6163
RightHand  -1.22741 1.86058 -19.6925
LeftUpLeg  -11.7317 3.30187 -1.33043
LeftLeg  -8.00797 43.5493 -13.8146
LeftFoot  1.71692 -0.13042 1.04243
LeftToes  -5.82109e-011 -4.83791e-012 -1.00937e-011
130
root  -56.22 39.4162 -2.77346 3.80838 -67.6403 -11.4317
RightUpLeg  14.4668 -16.8659 0.761859
RightLeg  18.0067 -11.7658 1.12049
RightFoot  -19.8191 -0.0210977 1.50073
RightToes  -4.65663e-010 0 -3.6325e-017
Spine  3.13543 3.67051 11.5871
Spine1  13.3893 5.90253 -5.07698
HEad  19.3356 16.8726 -9.47362
LeftShoulder1  5.47969 -8.41975 -39.6947
LeftArm  -14.8489 34.8814 -22.9192
LeftForeArm  28.359 -13.3271 -2.554
LeftHand  -0.244104 0.0205437 5.32207
RightShoulder  4.35257 7.57176 33.3542
RightArm  3.42672 4.89482 34.2786
RightForeArm  8.13068 51.5822 13.59
RightHand  -1.06999 0.787644 -20.0805
LeftUpLeg  -11.0561 3.2948 -2.43304
LeftLeg  -9.81753 49.4405 -16.108
LeftFoot  1.09272 -0.871905 7.97211
LeftToes  -5.82109e-011 -4.83791e-012 -1.00937e-011
131
root  -57.7193 39.2202 -2.63536 0.480377 -65.6668 -7.5907
RightUpLeg  16.1541 -24.0322 -2.55698
RightLeg  20.9257 -5.17154 -0.0999629
RightFoot  -20.6286 0.25992 4.82687
RightToes  -4.65663e-010 0 -3.6325e-017
Spine  2.17639 4.56566 9.32502
Spine1  13.2371 6.85866 -5.22845
HEad  19.878 15.8451 -8.39301
LeftShoulder1  5.15452 -7.90058 -38.9675
LeftArm  -16.8875 35.6974 -22.1655
LeftForeArm  26.8148 -15.2942 -2.22751
LeftHand  -0.244104 0.0205437 5.32207
RightShoulder  4.53167 7.77642 34.2187
RightArm  1.68354 3.64494 34.0992
RightForeArm  6.09681 48.9137 12.4501
RightHand  -1.04745 0.650862 -20.1068
LeftUpLeg  -11.056 3.75677 -4.1584
LeftLeg  -6.42909 50.0092 -14.7118
LeftFoot  -0.177798 -1.68014 17.0994
LeftToes  -5.82109e-011 -4.83791e-012 -1.00937e-011
132
root  -59.166 39.1126 -2.48564 -5.1577 -63.2814 -1.68562
RightUpLeg  16.1141 -27.4121 -6.49154
RightLeg  27.4178 -1.34392 -1.28797
RightFoot  -19.286 0.622617 11.1962
RightToes  -4.65663e-010 0 -3.6325e-017
Spine  2.32715 5.18683 5.67831
Spine1  12.6828 7.60163 -5.54035
HEad  20.4649 14.8838 -7.00265
LeftShoulder1  4.91982 -7.46477 -38.6323
LeftArm  -20.0306 35.8579 -21.5469
LeftForeArm  26.3517 -17.7653 -2.21199
LeftHand  -0.244104 0.0205437 5.32207
RightShoulder  4.82802 8.15777 35.4312
RightArm  0.110489 2.10243 34.4712
RightForeArm  4.50973 45.2451 11.007
RightHand  -1.17042 1.41666 -19.9717
LeftUpLeg  -11.7683 7.17076 -7.48305
LeftLeg  2.30884 44.9978 -8.39397
LeftFoot  -1.80028 -1.90606 22.5845
LeftToes  -5.82109e-011 -4.83791e-012 -1.00937e-011
133
root  -60.5028 39.0657 -2.31368 -9.81445 -59.8919 3.13385
RightUpLeg  12.582 -26.4725 -9.18208
RightLeg  38.3335 -1.97458 -1.96215
RightFoot  -11.7979 -0.015842 16.5011
RightToes  -4.65663e-010 0 -3.6325e-017
Spine  3.13102 5.31981 2.58695
Spine1  11.8169 7.93948 -6.42778
HEad  20.9873 13.7347 -5.61908
LeftShoulder1  4.81589 -7.27202 -38.4736
LeftArm  -23.7669 35.3406 -21.7494
LeftForeArm  26.5838 -20.2471 -2.67119
LeftHand  -0.244104 0.0205437 5.32207
RightShoulder  5.04451 8.45299 36.2052
RightArm  -1.17991 0.549219 36.0218
RightForeArm  3.47284 40.7798 9.44447
RightHand  -1.25709 1.96902 -19.8588
LeftUpLeg  -12.8321 17.0823 -12.5826
LeftLeg  11.3931 32.1679 -0.454397
LeftFoot  -3.36474 -1.53086 21.9198
LeftToes  -5.82109e-011 -4.83791e-012 -1.00937e-011
